<svg width="199" height="48" viewBox="0 0 199 48" fill="none" xmlns="http://www.w3.org/2000/svg">
<rect width="48" height="48" rx="6" fill="#C9CAFF"/>
<path d="M79.9261 20.2386C78.6136 20.2386 77.446 20.0256 76.4233 19.5994C75.4063 19.1676 74.608 18.5795 74.0284 17.8352C73.4489 17.0909 73.1591 16.2472 73.1591 15.304C73.1591 14.5767 73.3239 13.9091 73.6534 13.3011C73.9886 12.6875 74.4432 12.179 75.017 11.7756C75.5909 11.3665 76.233 11.1051 76.9432 10.9915V10.8722C76.0114 10.6847 75.2557 10.233 74.6761 9.51705C74.0966 8.79545 73.8068 7.95739 73.8068 7.00284C73.8068 6.09943 74.071 5.29545 74.5994 4.59091C75.1278 3.88068 75.8523 3.32386 76.7727 2.92045C77.6989 2.51136 78.75 2.30682 79.9261 2.30682C81.1023 2.30682 82.1506 2.51136 83.071 2.92045C83.9972 3.32955 84.7244 3.8892 85.2528 4.59943C85.7813 5.30398 86.0483 6.10511 86.054 7.00284C86.0483 7.96307 85.7528 8.80114 85.1676 9.51705C84.5824 10.233 83.8324 10.6847 82.9176 10.8722V10.9915C83.6165 11.1051 84.25 11.3665 84.8182 11.7756C85.392 12.179 85.8466 12.6875 86.1818 13.3011C86.5227 13.9091 86.696 14.5767 86.7017 15.304C86.696 16.2472 86.4034 17.0909 85.8239 17.8352C85.2443 18.5795 84.4432 19.1676 83.4205 19.5994C82.4034 20.0256 81.2386 20.2386 79.9261 20.2386ZM79.9261 17.5284C80.5114 17.5284 81.0227 17.4233 81.4602 17.2131C81.8977 16.9972 82.2386 16.7017 82.483 16.3267C82.733 15.946 82.858 15.5085 82.858 15.0142C82.858 14.5085 82.7301 14.0625 82.4744 13.6761C82.2188 13.2841 81.8722 12.9773 81.4347 12.7557C80.9972 12.5284 80.4943 12.4148 79.9261 12.4148C79.3636 12.4148 78.8608 12.5284 78.4176 12.7557C77.9744 12.9773 77.625 13.2841 77.3693 13.6761C77.1193 14.0625 76.9943 14.5085 76.9943 15.0142C76.9943 15.5085 77.1165 15.946 77.3608 16.3267C77.6051 16.7017 77.9489 16.9972 78.392 17.2131C78.8352 17.4233 79.3466 17.5284 79.9261 17.5284ZM79.9261 9.73011C80.4148 9.73011 80.8494 9.63068 81.2301 9.43182C81.6108 9.23295 81.9091 8.95739 82.125 8.60511C82.3409 8.25284 82.4489 7.84659 82.4489 7.38636C82.4489 6.93182 82.3409 6.53409 82.125 6.19318C81.9091 5.84659 81.6136 5.5767 81.2386 5.38352C80.8636 5.18466 80.4261 5.08523 79.9261 5.08523C79.4318 5.08523 78.9943 5.18466 78.6136 5.38352C78.233 5.5767 77.9347 5.84659 77.7188 6.19318C77.5085 6.53409 77.4034 6.93182 77.4034 7.38636C77.4034 7.84659 77.5114 8.25284 77.7273 8.60511C77.9432 8.95739 78.2415 9.23295 78.6222 9.43182C79.0028 9.63068 79.4375 9.73011 79.9261 9.73011ZM96.1257 20.3835C94.6598 20.3778 93.3984 20.017 92.3416 19.3011C91.2905 18.5852 90.4808 17.5483 89.9126 16.1903C89.3501 14.8324 89.0717 13.1989 89.0774 11.2898C89.0774 9.38636 89.3587 7.7642 89.9212 6.42329C90.4893 5.08239 91.299 4.0625 92.3501 3.36364C93.407 2.65909 94.6655 2.30682 96.1257 2.30682C97.5859 2.30682 98.8416 2.65909 99.8928 3.36364C100.95 4.06818 101.762 5.09091 102.33 6.43182C102.898 7.76705 103.18 9.38636 103.174 11.2898C103.174 13.2045 102.89 14.8409 102.322 16.1989C101.759 17.5568 100.952 18.5937 99.9013 19.3097C98.8501 20.0256 97.5916 20.3835 96.1257 20.3835ZM96.1257 17.3239C97.1257 17.3239 97.924 16.821 98.5206 15.8153C99.1172 14.8097 99.4126 13.3011 99.407 11.2898C99.407 9.96591 99.2706 8.86364 98.9979 7.98295C98.7308 7.10227 98.3501 6.44034 97.8558 5.99716C97.3672 5.55398 96.7905 5.33239 96.1257 5.33239C95.1314 5.33239 94.3359 5.82955 93.7393 6.82386C93.1428 7.81818 92.8416 9.30682 92.8359 11.2898C92.8359 12.6307 92.9695 13.75 93.2365 14.6477C93.5092 15.5398 93.8928 16.2102 94.3871 16.6591C94.8814 17.1023 95.4609 17.3239 96.1257 17.3239ZM112.649 20.3835C111.183 20.3778 109.922 20.017 108.865 19.3011C107.814 18.5852 107.004 17.5483 106.436 16.1903C105.874 14.8324 105.595 13.1989 105.601 11.2898C105.601 9.38636 105.882 7.7642 106.445 6.42329C107.013 5.08239 107.822 4.0625 108.874 3.36364C109.93 2.65909 111.189 2.30682 112.649 2.30682C114.109 2.30682 115.365 2.65909 116.416 3.36364C117.473 4.06818 118.286 5.09091 118.854 6.43182C119.422 7.76705 119.703 9.38636 119.697 11.2898C119.697 13.2045 119.413 14.8409 118.845 16.1989C118.283 17.5568 117.476 18.5937 116.425 19.3097C115.374 20.0256 114.115 20.3835 112.649 20.3835ZM112.649 17.3239C113.649 17.3239 114.447 16.821 115.044 15.8153C115.641 14.8097 115.936 13.3011 115.93 11.2898C115.93 9.96591 115.794 8.86364 115.521 7.98295C115.254 7.10227 114.874 6.44034 114.379 5.99716C113.891 5.55398 113.314 5.33239 112.649 5.33239C111.655 5.33239 110.859 5.82955 110.263 6.82386C109.666 7.81818 109.365 9.30682 109.359 11.2898C109.359 12.6307 109.493 13.75 109.76 14.6477C110.033 15.5398 110.416 16.2102 110.911 16.6591C111.405 17.1023 111.984 17.3239 112.649 17.3239ZM127.545 17.3409V5.27273H130.596V17.3409H127.545ZM123.036 12.8324V9.78125H135.104V12.8324H123.036ZM76.6875 42H73.321V31.0909H76.8366C77.8949 31.0909 78.8004 31.3093 79.5533 31.7461C80.3061 32.1793 80.8832 32.8026 81.2844 33.6158C81.6857 34.4254 81.8864 35.3949 81.8864 36.5241C81.8864 37.6605 81.6839 38.6388 81.2791 39.4592C80.8743 40.2759 80.2848 40.9045 79.5107 41.3448C78.7365 41.7816 77.7955 42 76.6875 42ZM74.642 40.8281H76.6023C77.5043 40.8281 78.2518 40.6541 78.8448 40.3061C79.4379 39.9581 79.88 39.4627 80.1712 38.82C80.4624 38.1772 80.608 37.4119 80.608 36.5241C80.608 35.6435 80.4641 34.8853 80.1765 34.2496C79.8888 33.6104 79.4592 33.1204 78.8874 32.7795C78.3157 32.435 77.6037 32.2628 76.7514 32.2628H74.642V40.8281ZM87.2557 42.1705C86.517 42.1705 85.869 41.9947 85.3114 41.6431C84.7575 41.2915 84.3242 40.7997 84.0117 40.1676C83.7028 39.5355 83.5483 38.7969 83.5483 37.9517C83.5483 37.0994 83.7028 36.3555 84.0117 35.7198C84.3242 35.0842 84.7575 34.5906 85.3114 34.239C85.869 33.8874 86.517 33.7116 87.2557 33.7116C87.9943 33.7116 88.6406 33.8874 89.1946 34.239C89.7521 34.5906 90.1854 35.0842 90.4943 35.7198C90.8068 36.3555 90.9631 37.0994 90.9631 37.9517C90.9631 38.7969 90.8068 39.5355 90.4943 40.1676C90.1854 40.7997 89.7521 41.2915 89.1946 41.6431C88.6406 41.9947 87.9943 42.1705 87.2557 42.1705ZM87.2557 41.0412C87.8168 41.0412 88.2784 40.8974 88.6406 40.6097C89.0028 40.3221 89.271 39.9439 89.445 39.4751C89.619 39.0064 89.706 38.4986 89.706 37.9517C89.706 37.4048 89.619 36.8952 89.445 36.4229C89.271 35.9506 89.0028 35.5689 88.6406 35.2777C88.2784 34.9865 87.8168 34.8409 87.2557 34.8409C86.6946 34.8409 86.233 34.9865 85.8707 35.2777C85.5085 35.5689 85.2404 35.9506 85.0664 36.4229C84.8924 36.8952 84.8054 37.4048 84.8054 37.9517C84.8054 38.4986 84.8924 39.0064 85.0664 39.4751C85.2404 39.9439 85.5085 40.3221 85.8707 40.6097C86.233 40.8974 86.6946 41.0412 87.2557 41.0412ZM94.4574 42L91.9645 33.8182H93.2855L95.054 40.0824H95.1392L96.8864 33.8182H98.2287L99.9545 40.0611H100.04L101.808 33.8182H103.129L100.636 42H99.4006L97.6108 35.7145H97.483L95.6932 42H94.4574ZM106.048 37.0781V42H104.791V33.8182H106.006V35.0966H106.112C106.304 34.6811 106.595 34.3473 106.986 34.0952C107.376 33.8395 107.881 33.7116 108.499 33.7116C109.053 33.7116 109.537 33.8253 109.953 34.0526C110.368 34.2763 110.691 34.6172 110.922 35.0753C111.153 35.5298 111.268 36.1051 111.268 36.8011V42H110.011V36.8864C110.011 36.2436 109.844 35.7429 109.511 35.3842C109.177 35.022 108.719 34.8409 108.136 34.8409C107.735 34.8409 107.376 34.9279 107.06 35.1019C106.748 35.2759 106.501 35.5298 106.32 35.8636C106.139 36.1974 106.048 36.6023 106.048 37.0781ZM114.823 31.0909V42H113.566V31.0909H114.823ZM120.449 42.1705C119.71 42.1705 119.062 41.9947 118.505 41.6431C117.951 41.2915 117.518 40.7997 117.205 40.1676C116.896 39.5355 116.742 38.7969 116.742 37.9517C116.742 37.0994 116.896 36.3555 117.205 35.7198C117.518 35.0842 117.951 34.5906 118.505 34.239C119.062 33.8874 119.71 33.7116 120.449 33.7116C121.188 33.7116 121.834 33.8874 122.388 34.239C122.945 34.5906 123.379 35.0842 123.688 35.7198C124 36.3555 124.156 37.0994 124.156 37.9517C124.156 38.7969 124 39.5355 123.688 40.1676C123.379 40.7997 122.945 41.2915 122.388 41.6431C121.834 41.9947 121.188 42.1705 120.449 42.1705ZM120.449 41.0412C121.01 41.0412 121.472 40.8974 121.834 40.6097C122.196 40.3221 122.464 39.9439 122.638 39.4751C122.812 39.0064 122.899 38.4986 122.899 37.9517C122.899 37.4048 122.812 36.8952 122.638 36.4229C122.464 35.9506 122.196 35.5689 121.834 35.2777C121.472 34.9865 121.01 34.8409 120.449 34.8409C119.888 34.8409 119.426 34.9865 119.064 35.2777C118.702 35.5689 118.434 35.9506 118.26 36.4229C118.086 36.8952 117.999 37.4048 117.999 37.9517C117.999 38.4986 118.086 39.0064 118.26 39.4751C118.434 39.9439 118.702 40.3221 119.064 40.6097C119.426 40.8974 119.888 41.0412 120.449 41.0412ZM128.483 42.1918C127.965 42.1918 127.494 42.0941 127.071 41.8988C126.649 41.6999 126.313 41.4141 126.065 41.0412C125.816 40.6648 125.692 40.2102 125.692 39.6776C125.692 39.2088 125.784 38.8288 125.969 38.5376C126.153 38.2429 126.4 38.0121 126.709 37.8452C127.018 37.6783 127.359 37.554 127.732 37.4723C128.108 37.3871 128.487 37.3196 128.867 37.2699C129.364 37.206 129.767 37.158 130.076 37.1261C130.388 37.0906 130.616 37.032 130.758 36.9503C130.903 36.8686 130.976 36.7266 130.976 36.5241V36.4815C130.976 35.956 130.832 35.5476 130.544 35.2564C130.26 34.9652 129.829 34.8196 129.25 34.8196C128.65 34.8196 128.179 34.951 127.839 35.2138C127.498 35.4766 127.258 35.7571 127.119 36.0554L125.926 35.6293C126.139 35.1321 126.423 34.745 126.778 34.468C127.137 34.1875 127.528 33.9922 127.95 33.8821C128.377 33.7685 128.796 33.7116 129.207 33.7116C129.47 33.7116 129.772 33.7436 130.113 33.8075C130.457 33.8679 130.79 33.994 131.109 34.1857C131.432 34.3775 131.7 34.6669 131.913 35.054C132.127 35.4411 132.233 35.9595 132.233 36.6094V42H130.976V40.892H130.912C130.827 41.0696 130.685 41.2596 130.486 41.462C130.287 41.6644 130.022 41.8366 129.692 41.9787C129.362 42.1207 128.959 42.1918 128.483 42.1918ZM128.675 41.0625C129.172 41.0625 129.591 40.9648 129.932 40.7695C130.276 40.5742 130.536 40.3221 130.71 40.0131C130.887 39.7042 130.976 39.3793 130.976 39.0384V37.8878C130.923 37.9517 130.805 38.0103 130.624 38.0636C130.447 38.1133 130.241 38.1577 130.006 38.1967C129.776 38.2322 129.55 38.2642 129.33 38.2926C129.113 38.3175 128.938 38.3388 128.803 38.3565C128.476 38.3991 128.171 38.4684 127.886 38.5643C127.606 38.6566 127.379 38.7969 127.205 38.9851C127.034 39.1697 126.949 39.4219 126.949 39.7415C126.949 40.1783 127.111 40.5085 127.434 40.7322C127.76 40.9524 128.174 41.0625 128.675 41.0625ZM137.617 42.1705C136.935 42.1705 136.333 41.9982 135.811 41.6538C135.289 41.3058 134.881 40.8157 134.586 40.1836C134.291 39.5479 134.144 38.7969 134.144 37.9304C134.144 37.071 134.291 36.3253 134.586 35.6932C134.881 35.0611 135.291 34.5728 135.817 34.2283C136.342 33.8839 136.949 33.7116 137.638 33.7116C138.171 33.7116 138.592 33.8004 138.901 33.978C139.213 34.152 139.451 34.3509 139.615 34.5746C139.781 34.7947 139.911 34.9759 140.003 35.1179H140.11V31.0909H141.367V42H140.153V40.7429H140.003C139.911 40.892 139.78 41.0803 139.609 41.3075C139.439 41.5312 139.195 41.7319 138.879 41.9094C138.563 42.0835 138.143 42.1705 137.617 42.1705ZM137.787 41.0412C138.292 41.0412 138.718 40.9098 139.066 40.647C139.414 40.3807 139.678 40.0131 139.86 39.5444C140.041 39.0721 140.131 38.527 140.131 37.9091C140.131 37.2983 140.042 36.7638 139.865 36.3058C139.687 35.8441 139.425 35.4854 139.077 35.2298C138.729 34.9705 138.299 34.8409 137.787 34.8409C137.255 34.8409 136.811 34.9776 136.456 35.2511C136.104 35.521 135.84 35.8885 135.662 36.3537C135.488 36.8153 135.401 37.3338 135.401 37.9091C135.401 38.4915 135.49 39.0206 135.667 39.4964C135.849 39.9687 136.115 40.3452 136.466 40.6257C136.822 40.9027 137.262 41.0412 137.787 41.0412ZM149.32 37.0781V42H148.063V33.8182H149.277V35.0966H149.384C149.575 34.6811 149.867 34.3473 150.257 34.0952C150.648 33.8395 151.152 33.7116 151.77 33.7116C152.324 33.7116 152.809 33.8253 153.224 34.0526C153.64 34.2763 153.963 34.6172 154.194 35.0753C154.425 35.5298 154.54 36.1051 154.54 36.8011V42H153.283V36.8864C153.283 36.2436 153.116 35.7429 152.782 35.3842C152.448 35.022 151.99 34.8409 151.408 34.8409C151.007 34.8409 150.648 34.9279 150.332 35.1019C150.019 35.2759 149.773 35.5298 149.591 35.8636C149.41 36.1974 149.32 36.6023 149.32 37.0781ZM160.161 42.1705C159.422 42.1705 158.774 41.9947 158.217 41.6431C157.663 41.2915 157.229 40.7997 156.917 40.1676C156.608 39.5355 156.454 38.7969 156.454 37.9517C156.454 37.0994 156.608 36.3555 156.917 35.7198C157.229 35.0842 157.663 34.5906 158.217 34.239C158.774 33.8874 159.422 33.7116 160.161 33.7116C160.9 33.7116 161.546 33.8874 162.1 34.239C162.657 34.5906 163.091 35.0842 163.4 35.7198C163.712 36.3555 163.868 37.0994 163.868 37.9517C163.868 38.7969 163.712 39.5355 163.4 40.1676C163.091 40.7997 162.657 41.2915 162.1 41.6431C161.546 41.9947 160.9 42.1705 160.161 42.1705ZM160.161 41.0412C160.722 41.0412 161.184 40.8974 161.546 40.6097C161.908 40.3221 162.176 39.9439 162.35 39.4751C162.524 39.0064 162.611 38.4986 162.611 37.9517C162.611 37.4048 162.524 36.8952 162.35 36.4229C162.176 35.9506 161.908 35.5689 161.546 35.2777C161.184 34.9865 160.722 34.8409 160.161 34.8409C159.6 34.8409 159.138 34.9865 158.776 35.2777C158.414 35.5689 158.146 35.9506 157.972 36.4229C157.798 36.8952 157.711 37.4048 157.711 37.9517C157.711 38.4986 157.798 39.0064 157.972 39.4751C158.146 39.9439 158.414 40.3221 158.776 40.6097C159.138 40.8974 159.6 41.0412 160.161 41.0412ZM170.624 42H169.239L173.245 31.0909H174.608L178.614 42H177.229L173.969 32.8168H173.884L170.624 42ZM171.135 37.7386H176.718V38.9105H171.135V37.7386ZM180.313 42V31.0909H183.999C184.855 31.0909 185.555 31.2454 186.098 31.5543C186.645 31.8597 187.05 32.2734 187.312 32.7955C187.575 33.3175 187.707 33.8999 187.707 34.5426C187.707 35.1854 187.575 35.7695 187.312 36.2951C187.053 36.8207 186.652 37.2397 186.109 37.5522C185.565 37.8612 184.869 38.0156 184.021 38.0156H181.379V36.8438H183.978C184.564 36.8438 185.034 36.7425 185.39 36.5401C185.745 36.3377 186.002 36.0643 186.162 35.7198C186.325 35.3718 186.407 34.9794 186.407 34.5426C186.407 34.1058 186.325 33.7152 186.162 33.3707C186.002 33.0263 185.743 32.7564 185.384 32.5611C185.026 32.3622 184.55 32.2628 183.957 32.2628H181.634V42H180.313ZM189.835 42V31.0909H193.521C194.377 31.0909 195.076 31.2454 195.619 31.5543C196.166 31.8597 196.571 32.2734 196.834 32.7955C197.097 33.3175 197.228 33.8999 197.228 34.5426C197.228 35.1854 197.097 35.7695 196.834 36.2951C196.575 36.8207 196.173 37.2397 195.63 37.5522C195.087 37.8612 194.391 38.0156 193.542 38.0156H190.9V36.8438H193.499C194.085 36.8438 194.556 36.7425 194.911 36.5401C195.266 36.3377 195.524 36.0643 195.683 35.7198C195.847 35.3718 195.928 34.9794 195.928 34.5426C195.928 34.1058 195.847 33.7152 195.683 33.3707C195.524 33.0263 195.264 32.7564 194.906 32.5611C194.547 32.3622 194.071 32.2628 193.478 32.2628H191.156V42H189.835Z" fill="#272626"/>
<path fill-rule="evenodd" clip-rule="evenodd" d="M16 30.6309C16 30.1291 16.5373 29.7222 17.2 29.7222H31.6C32.2627 29.7222 32.8 30.1291 32.8 30.6309C32.8 31.1328 32.2627 31.5397 31.6 31.5397H17.2C16.5373 31.5397 16 31.1328 16 30.6309ZM19.9515 23.6273C20.4201 23.2724 21.1799 23.2724 21.6485 23.6273L23.2 24.8021L23.2 17.9087C23.2 17.4069 23.7373 17 24.4 17C25.0627 17 25.6 17.4069 25.6 17.9087L25.6 24.8021L27.1515 23.6273C27.6201 23.2724 28.3799 23.2724 28.8485 23.6273C29.3172 23.9821 29.3172 24.5575 28.8485 24.9124L25.2485 27.6386C25.0235 27.809 24.7183 27.9047 24.4 27.9047C24.0817 27.9047 23.7765 27.809 23.5515 27.6386L19.9515 24.9124C19.4828 24.5575 19.4828 23.9821 19.9515 23.6273Z" fill="#4B4EFC"/>
</svg>
