<svg width="17" height="15" viewBox="0 0 17 15" fill="none" xmlns="http://www.w3.org/2000/svg">
<path fill-rule="evenodd" clip-rule="evenodd" d="M0 13.6309C-2.89694e-08 13.1291 0.537258 12.7222 1.2 12.7222H15.6C16.2627 12.7222 16.8 13.1291 16.8 13.6309C16.8 14.1328 16.2627 14.5397 15.6 14.5397H1.2C0.537258 14.5397 2.89694e-08 14.1328 0 13.6309ZM3.95147 6.62726C4.4201 6.27238 5.1799 6.27238 5.64853 6.62726L7.2 7.80215L7.2 0.908729C7.2 0.406852 7.73726 2.19377e-08 8.4 0C9.06274 -2.19377e-08 9.6 0.406851 9.6 0.908728L9.6 7.80215L11.1515 6.62726C11.6201 6.27238 12.3799 6.27238 12.8485 6.62726C13.3172 6.98214 13.3172 7.55752 12.8485 7.9124L9.24853 10.6386C9.02348 10.809 8.71826 10.9047 8.4 10.9047C8.08174 10.9047 7.77652 10.809 7.55147 10.6386L3.95147 7.9124C3.48284 7.55752 3.48284 6.98214 3.95147 6.62726Z" fill="#4B4EFC"/>
</svg>
