<svg width="22" height="18" viewBox="0 0 22 18" fill="none" xmlns="http://www.w3.org/2000/svg">
<path d="M13.9 3.6C13.9 5.31208 12.5121 6.7 10.8 6.7C9.08792 6.7 7.7 5.31208 7.7 3.6C7.7 1.88792 9.08792 0.5 10.8 0.5C12.5121 0.5 13.9 1.88792 13.9 3.6ZM19.9 6C19.9 7.04934 19.0493 7.9 18 7.9C16.9507 7.9 16.1 7.04934 16.1 6C16.1 4.95066 16.9507 4.1 18 4.1C19.0493 4.1 19.9 4.95066 19.9 6ZM10.8 10.1C13.1748 10.1 15.1 12.0252 15.1 14.4V17.5H6.5V14.4C6.5 12.0252 8.42518 10.1 10.8 10.1ZM5.5 6C5.5 7.04934 4.64934 7.9 3.6 7.9C2.55066 7.9 1.7 7.04934 1.7 6C1.7 4.95066 2.55066 4.1 3.6 4.1C4.64934 4.1 5.5 4.95066 5.5 6ZM18.5 17.5V14.4C18.5 13.2992 18.2687 12.2514 17.8519 11.3035C17.901 11.3012 17.9503 11.3 18 11.3C19.7121 11.3 21.1 12.6879 21.1 14.4V17.5H18.5ZM0.5 17.5V14.4C0.5 12.6879 1.88792 11.3 3.6 11.3C3.64967 11.3 3.69904 11.3012 3.74809 11.3035C3.33128 12.2514 3.1 13.2992 3.1 14.4V17.5H0.5Z" fill="#4B4EFC" stroke="#4B4EFC"/>
</svg>
