<svg width="17" height="15" viewBox="0 0 17 15" fill="none" xmlns="http://www.w3.org/2000/svg">
<path d="M7.2 0C5.87452 0 4.8 0.813704 4.8 1.81746V9.08729C4.8 10.091 5.87452 10.9047 7.2 10.9047H14.4C15.7255 10.9047 16.8 10.091 16.8 9.08729V4.01132C16.8 3.5293 16.5471 3.06703 16.0971 2.72619L13.2 0.532321C12.7499 0.191481 12.1395 0 11.5029 0H7.2Z" fill="#4B4EFC"/>
<path d="M0 5.45237C0 4.44862 1.07452 3.63491 2.4 3.63491V12.7222H12C12 13.726 10.9255 14.5397 9.6 14.5397H2.4C1.07452 14.5397 0 13.726 0 12.7222V5.45237Z" fill="#4B4EFC"/>
</svg>
