<svg width="35" height="35" viewBox="0 0 35 35" fill="none" xmlns="http://www.w3.org/2000/svg">
<rect width="35" height="35" rx="4" fill="#272626"/>
<path d="M7.5 21V19.5V18V16.5V15V13.5H9H10.5H12V15H10.5H9V16.5V18V19.5H10.5H12V21H10.5H9H7.5ZM12 19.5V18V16.5V15H13.5V16.5V18V19.5H12ZM15 21V19.5V18V16.5V15V13.5H16.5H18H19.5H21V15H19.5H18H16.5V16.5H18H19.5V18H18H16.5V19.5H18H19.5H21V21H19.5H18H16.5H15ZM24 19.5V18H25.5V19.5H24ZM25.5 21V19.5H27V21H25.5ZM27 19.5V18V16.5V15V13.5H28.5V15V16.5V18V19.5H27ZM22.5 18V16.5V15V13.5H24V15V16.5V18H22.5Z" fill="#F9FAFB"/>
</svg>
