<svg width="157" height="48" viewBox="0 0 157 48" fill="none" xmlns="http://www.w3.org/2000/svg">
<rect width="48" height="48" rx="6" fill="#C9CAFF"/>
<path d="M26.9 18.6C26.9 20.3121 25.5121 21.7 23.8 21.7C22.0879 21.7 20.7 20.3121 20.7 18.6C20.7 16.8879 22.0879 15.5 23.8 15.5C25.5121 15.5 26.9 16.8879 26.9 18.6ZM32.9 21C32.9 22.0493 32.0493 22.9 31 22.9C29.9507 22.9 29.1 22.0493 29.1 21C29.1 19.9507 29.9507 19.1 31 19.1C32.0493 19.1 32.9 19.9507 32.9 21ZM23.8 25.1C26.1748 25.1 28.1 27.0252 28.1 29.4V32.5H19.5V29.4C19.5 27.0252 21.4252 25.1 23.8 25.1ZM18.5 21C18.5 22.0493 17.6493 22.9 16.6 22.9C15.5507 22.9 14.7 22.0493 14.7 21C14.7 19.9507 15.5507 19.1 16.6 19.1C17.6493 19.1 18.5 19.9507 18.5 21ZM31.5 32.5V29.4C31.5 28.2992 31.2687 27.2514 30.8519 26.3035C30.901 26.3012 30.9503 26.3 31 26.3C32.7121 26.3 34.1 27.6879 34.1 29.4V32.5H31.5ZM13.5 32.5V29.4C13.5 27.6879 14.8879 26.3 16.6 26.3C16.6497 26.3 16.699 26.3012 16.7481 26.3035C16.3313 27.2514 16.1 28.2992 16.1 29.4V32.5H13.5Z" fill="#4B4EFC" stroke="#4B4EFC"/>
<path d="M73.4148 20V17.3409L79.6278 11.5881C80.1563 11.0767 80.5994 10.6165 80.9574 10.2074C81.321 9.7983 81.5966 9.39773 81.7841 9.00568C81.9716 8.60795 82.0653 8.17898 82.0653 7.71875C82.0653 7.20739 81.9489 6.76705 81.7159 6.39773C81.483 6.02273 81.1648 5.7358 80.7614 5.53693C80.358 5.33239 79.9006 5.23011 79.3892 5.23011C78.8551 5.23011 78.3892 5.33807 77.9915 5.55398C77.5938 5.76989 77.2869 6.07955 77.071 6.48295C76.8551 6.88636 76.7472 7.36648 76.7472 7.92329H73.2443C73.2443 6.78125 73.5028 5.78977 74.0199 4.94886C74.5369 4.10795 75.2614 3.45739 76.1932 2.99716C77.125 2.53693 78.1989 2.30682 79.4148 2.30682C80.6648 2.30682 81.7528 2.52841 82.679 2.97159C83.6108 3.40909 84.3352 4.01705 84.8523 4.79545C85.3693 5.57386 85.6278 6.46591 85.6278 7.47159C85.6278 8.13068 85.4972 8.78125 85.2358 9.4233C84.9801 10.0653 84.5227 10.7784 83.8636 11.5625C83.2045 12.3409 82.2756 13.2756 81.0767 14.3665L78.5284 16.8636V16.983H85.858V20H73.4148ZM95.3757 20.3835C93.9098 20.3778 92.6484 20.017 91.5916 19.3011C90.5405 18.5852 89.7308 17.5483 89.1626 16.1903C88.6001 14.8324 88.3217 13.1989 88.3274 11.2898C88.3274 9.38636 88.6087 7.7642 89.1712 6.42329C89.7393 5.08239 90.549 4.0625 91.6001 3.36364C92.657 2.65909 93.9155 2.30682 95.3757 2.30682C96.8359 2.30682 98.0916 2.65909 99.1428 3.36364C100.2 4.06818 101.012 5.09091 101.58 6.43182C102.148 7.76705 102.43 9.38636 102.424 11.2898C102.424 13.2045 102.14 14.8409 101.572 16.1989C101.009 17.5568 100.202 18.5937 99.1513 19.3097C98.1001 20.0256 96.8416 20.3835 95.3757 20.3835ZM95.3757 17.3239C96.3757 17.3239 97.174 16.821 97.7706 15.8153C98.3672 14.8097 98.6626 13.3011 98.657 11.2898C98.657 9.96591 98.5206 8.86364 98.2479 7.98295C97.9808 7.10227 97.6001 6.44034 97.1058 5.99716C96.6172 5.55398 96.0405 5.33239 95.3757 5.33239C94.3814 5.33239 93.5859 5.82955 92.9893 6.82386C92.3928 7.81818 92.0916 9.30682 92.0859 11.2898C92.0859 12.6307 92.2195 13.75 92.4865 14.6477C92.7592 15.5398 93.1428 16.2102 93.6371 16.6591C94.1314 17.1023 94.7109 17.3239 95.3757 17.3239ZM111.899 20.3835C110.433 20.3778 109.172 20.017 108.115 19.3011C107.064 18.5852 106.254 17.5483 105.686 16.1903C105.124 14.8324 104.845 13.1989 104.851 11.2898C104.851 9.38636 105.132 7.7642 105.695 6.42329C106.263 5.08239 107.072 4.0625 108.124 3.36364C109.18 2.65909 110.439 2.30682 111.899 2.30682C113.359 2.30682 114.615 2.65909 115.666 3.36364C116.723 4.06818 117.536 5.09091 118.104 6.43182C118.672 7.76705 118.953 9.38636 118.947 11.2898C118.947 13.2045 118.663 14.8409 118.095 16.1989C117.533 17.5568 116.726 18.5937 115.675 19.3097C114.624 20.0256 113.365 20.3835 111.899 20.3835ZM111.899 17.3239C112.899 17.3239 113.697 16.821 114.294 15.8153C114.891 14.8097 115.186 13.3011 115.18 11.2898C115.18 9.96591 115.044 8.86364 114.771 7.98295C114.504 7.10227 114.124 6.44034 113.629 5.99716C113.141 5.55398 112.564 5.33239 111.899 5.33239C110.905 5.33239 110.109 5.82955 109.513 6.82386C108.916 7.81818 108.615 9.30682 108.609 11.2898C108.609 12.6307 108.743 13.75 109.01 14.6477C109.283 15.5398 109.666 16.2102 110.161 16.6591C110.655 17.1023 111.234 17.3239 111.899 17.3239ZM126.795 17.3409V5.27273H129.846V17.3409H126.795ZM122.286 12.8324V9.78125H134.354V12.8324H122.286ZM81.9716 31.0909V42H80.6932L74.7486 33.4347H74.642V42H73.321V31.0909H74.5994L80.5653 39.6776H80.6719V31.0909H81.9716ZM87.7684 42.1705C87.0297 42.1705 86.3817 41.9947 85.8241 41.6431C85.2702 41.2915 84.8369 40.7997 84.5244 40.1676C84.2155 39.5355 84.061 38.7969 84.061 37.9517C84.061 37.0994 84.2155 36.3555 84.5244 35.7198C84.8369 35.0842 85.2702 34.5906 85.8241 34.239C86.3817 33.8874 87.0297 33.7116 87.7684 33.7116C88.507 33.7116 89.1533 33.8874 89.7073 34.239C90.2648 34.5906 90.6981 35.0842 91.007 35.7198C91.3195 36.3555 91.4758 37.0994 91.4758 37.9517C91.4758 38.7969 91.3195 39.5355 91.007 40.1676C90.6981 40.7997 90.2648 41.2915 89.7073 41.6431C89.1533 41.9947 88.507 42.1705 87.7684 42.1705ZM87.7684 41.0412C88.3295 41.0412 88.7911 40.8974 89.1533 40.6097C89.5155 40.3221 89.7836 39.9439 89.9577 39.4751C90.1317 39.0064 90.2187 38.4986 90.2187 37.9517C90.2187 37.4048 90.1317 36.8952 89.9577 36.4229C89.7836 35.9506 89.5155 35.5689 89.1533 35.2777C88.7911 34.9865 88.3295 34.8409 87.7684 34.8409C87.2073 34.8409 86.7456 34.9865 86.3834 35.2777C86.0212 35.5689 85.7531 35.9506 85.5791 36.4229C85.4051 36.8952 85.3181 37.4048 85.3181 37.9517C85.3181 38.4986 85.4051 39.0064 85.5791 39.4751C85.7531 39.9439 86.0212 40.3221 86.3834 40.6097C86.7456 40.8974 87.2073 41.0412 87.7684 41.0412ZM99.7921 33.8182L96.7665 42H95.4881L92.4625 33.8182H93.8262L96.0847 40.3381H96.1699L98.4284 33.8182H99.7921ZM104.482 42.1705C103.744 42.1705 103.096 41.9947 102.538 41.6431C101.984 41.2915 101.551 40.7997 101.238 40.1676C100.929 39.5355 100.775 38.7969 100.775 37.9517C100.775 37.0994 100.929 36.3555 101.238 35.7198C101.551 35.0842 101.984 34.5906 102.538 34.239C103.096 33.8874 103.744 33.7116 104.482 33.7116C105.221 33.7116 105.867 33.8874 106.421 34.239C106.979 34.5906 107.412 35.0842 107.721 35.7198C108.033 36.3555 108.19 37.0994 108.19 37.9517C108.19 38.7969 108.033 39.5355 107.721 40.1676C107.412 40.7997 106.979 41.2915 106.421 41.6431C105.867 41.9947 105.221 42.1705 104.482 42.1705ZM104.482 41.0412C105.043 41.0412 105.505 40.8974 105.867 40.6097C106.229 40.3221 106.498 39.9439 106.672 39.4751C106.846 39.0064 106.933 38.4986 106.933 37.9517C106.933 37.4048 106.846 36.8952 106.672 36.4229C106.498 35.9506 106.229 35.5689 105.867 35.2777C105.505 34.9865 105.043 34.8409 104.482 34.8409C103.921 34.8409 103.46 34.9865 103.097 35.2777C102.735 35.5689 102.467 35.9506 102.293 36.4229C102.119 36.8952 102.032 37.4048 102.032 37.9517C102.032 38.4986 102.119 39.0064 102.293 39.4751C102.467 39.9439 102.735 40.3221 103.097 40.6097C103.46 40.8974 103.921 41.0412 104.482 41.0412ZM115.904 35.6506L114.775 35.9702C114.704 35.782 114.599 35.5991 114.46 35.4215C114.326 35.2404 114.141 35.0913 113.907 34.9741C113.672 34.8569 113.372 34.7983 113.006 34.7983C112.506 34.7983 112.088 34.9137 111.755 35.1445C111.424 35.3718 111.259 35.6612 111.259 36.0128C111.259 36.3253 111.373 36.5721 111.6 36.7532C111.827 36.9343 112.182 37.0852 112.665 37.206L113.88 37.5043C114.611 37.6818 115.157 37.9535 115.515 38.3192C115.874 38.6815 116.053 39.1484 116.053 39.7202C116.053 40.1889 115.918 40.608 115.648 40.9773C115.382 41.3466 115.009 41.6378 114.53 41.8509C114.05 42.0639 113.493 42.1705 112.857 42.1705C112.023 42.1705 111.332 41.9893 110.785 41.6271C110.238 41.2649 109.892 40.7358 109.746 40.0398L110.94 39.7415C111.053 40.1818 111.268 40.5121 111.584 40.7322C111.904 40.9524 112.321 41.0625 112.836 41.0625C113.422 41.0625 113.887 40.9382 114.231 40.6896C114.579 40.4375 114.753 40.1357 114.753 39.7841C114.753 39.5 114.654 39.2621 114.455 39.0703C114.256 38.875 113.951 38.7294 113.539 38.6335L112.175 38.3139C111.426 38.1364 110.876 37.8612 110.524 37.4883C110.176 37.1119 110.002 36.6413 110.002 36.0767C110.002 35.6151 110.132 35.2067 110.391 34.8516C110.654 34.4964 111.011 34.2177 111.462 34.0153C111.916 33.8129 112.431 33.7116 113.006 33.7116C113.816 33.7116 114.452 33.8892 114.913 34.2443C115.378 34.5994 115.709 35.0682 115.904 35.6506ZM125.701 42H122.335V31.0909H125.85C126.909 31.0909 127.814 31.3093 128.567 31.7461C129.32 32.1793 129.897 32.8026 130.298 33.6158C130.699 34.4254 130.9 35.3949 130.9 36.5241C130.9 37.6605 130.698 38.6388 130.293 39.4592C129.888 40.2759 129.298 40.9045 128.524 41.3448C127.75 41.7816 126.809 42 125.701 42ZM123.656 40.8281H125.616C126.518 40.8281 127.265 40.6541 127.858 40.3061C128.452 39.9581 128.894 39.4627 129.185 38.82C129.476 38.1772 129.622 37.4119 129.622 36.5241C129.622 35.6435 129.478 34.8853 129.19 34.2496C128.903 33.6104 128.473 33.1204 127.901 32.7795C127.329 32.435 126.617 32.2628 125.765 32.2628H123.656V40.8281ZM136.376 42.1705C135.588 42.1705 134.907 41.9964 134.336 41.6484C133.768 41.2969 133.329 40.8068 133.02 40.1783C132.715 39.5462 132.562 38.8111 132.562 37.973C132.562 37.1349 132.715 36.3963 133.02 35.7571C133.329 35.1143 133.759 34.6136 134.309 34.255C134.863 33.8928 135.509 33.7116 136.248 33.7116C136.674 33.7116 137.095 33.7827 137.51 33.9247C137.926 34.0668 138.304 34.2976 138.645 34.6172C138.986 34.9332 139.258 35.3523 139.46 35.8743C139.662 36.3963 139.764 37.0391 139.764 37.8026V38.3352H133.457V37.2486H138.485C138.485 36.7869 138.393 36.375 138.208 36.0128C138.027 35.6506 137.768 35.3647 137.431 35.1552C137.097 34.9457 136.703 34.8409 136.248 34.8409C135.747 34.8409 135.314 34.9652 134.948 35.2138C134.586 35.4588 134.307 35.7784 134.112 36.1726C133.917 36.5668 133.819 36.9893 133.819 37.4403V38.1648C133.819 38.7827 133.926 39.3065 134.139 39.7362C134.355 40.1623 134.655 40.4872 135.039 40.7109C135.422 40.9311 135.868 41.0412 136.376 41.0412C136.706 41.0412 137.004 40.995 137.271 40.9027C137.541 40.8068 137.773 40.6648 137.969 40.4766C138.164 40.2848 138.315 40.0469 138.421 39.7628L139.636 40.1037C139.508 40.5156 139.293 40.8778 138.991 41.1903C138.689 41.4993 138.317 41.7408 137.873 41.9148C137.429 42.0852 136.93 42.1705 136.376 42.1705ZM148.117 33.8182L145.092 42H143.813L140.788 33.8182H142.151L144.41 40.3381H144.495L146.754 33.8182H148.117ZM155.572 35.6506L154.443 35.9702C154.372 35.782 154.267 35.5991 154.128 35.4215C153.994 35.2404 153.809 35.0913 153.574 34.9741C153.34 34.8569 153.04 34.7983 152.674 34.7983C152.174 34.7983 151.756 34.9137 151.422 35.1445C151.092 35.3718 150.927 35.6612 150.927 36.0128C150.927 36.3253 151.041 36.5721 151.268 36.7532C151.495 36.9343 151.85 37.0852 152.333 37.206L153.548 37.5043C154.279 37.6818 154.824 37.9535 155.183 38.3192C155.542 38.6815 155.721 39.1484 155.721 39.7202C155.721 40.1889 155.586 40.608 155.316 40.9773C155.05 41.3466 154.677 41.6378 154.198 41.8509C153.718 42.0639 153.161 42.1705 152.525 42.1705C151.691 42.1705 151 41.9893 150.453 41.6271C149.906 41.2649 149.56 40.7358 149.414 40.0398L150.608 39.7415C150.721 40.1818 150.936 40.5121 151.252 40.7322C151.572 40.9524 151.989 41.0625 152.504 41.0625C153.09 41.0625 153.555 40.9382 153.899 40.6896C154.247 40.4375 154.421 40.1357 154.421 39.7841C154.421 39.5 154.322 39.2621 154.123 39.0703C153.924 38.875 153.619 38.7294 153.207 38.6335L151.843 38.3139C151.094 38.1364 150.544 37.8612 150.192 37.4883C149.844 37.1119 149.67 36.6413 149.67 36.0767C149.67 35.6151 149.8 35.2067 150.059 34.8516C150.322 34.4964 150.679 34.2177 151.13 34.0153C151.584 33.8129 152.099 33.7116 152.674 33.7116C153.484 33.7116 154.12 33.8892 154.581 34.2443C155.046 34.5994 155.377 35.0682 155.572 35.6506Z" fill="#272626"/>
</svg>
