<svg width="214" height="48" viewBox="0 0 214 48" fill="none" xmlns="http://www.w3.org/2000/svg">
<rect width="48" height="48" rx="6" fill="#C9CAFF"/>
<path d="M73.1506 16.9318V14.0256L80.4375 2.54545H82.9432V6.56818H81.4602L76.8665 13.8381V13.9744H87.2216V16.9318H73.1506ZM81.5284 20V16.0455L81.5966 14.7585V2.54545H85.0568V20H81.5284ZM96.5241 20.3835C95.0582 20.3778 93.7969 20.017 92.7401 19.3011C91.6889 18.5852 90.8793 17.5483 90.3111 16.1903C89.7486 14.8324 89.4702 13.1989 89.4759 11.2898C89.4759 9.38636 89.7571 7.7642 90.3196 6.42329C90.8878 5.08239 91.6974 4.0625 92.7486 3.36364C93.8054 2.65909 95.0639 2.30682 96.5241 2.30682C97.9844 2.30682 99.2401 2.65909 100.291 3.36364C101.348 4.06818 102.161 5.09091 102.729 6.43182C103.297 7.76705 103.578 9.38636 103.572 11.2898C103.572 13.2045 103.288 14.8409 102.72 16.1989C102.158 17.5568 101.351 18.5937 100.3 19.3097C99.2486 20.0256 97.9901 20.3835 96.5241 20.3835ZM96.5241 17.3239C97.5241 17.3239 98.3224 16.821 98.919 15.8153C99.5156 14.8097 99.8111 13.3011 99.8054 11.2898C99.8054 9.96591 99.669 8.86364 99.3963 7.98295C99.1293 7.10227 98.7486 6.44034 98.2543 5.99716C97.7656 5.55398 97.1889 5.33239 96.5241 5.33239C95.5298 5.33239 94.7344 5.82955 94.1378 6.82386C93.5412 7.81818 93.2401 9.30682 93.2344 11.2898C93.2344 12.6307 93.3679 13.75 93.6349 14.6477C93.9077 15.5398 94.2912 16.2102 94.7855 16.6591C95.2798 17.1023 95.8594 17.3239 96.5241 17.3239ZM113.048 20.3835C111.582 20.3778 110.32 20.017 109.263 19.3011C108.212 18.5852 107.403 17.5483 106.835 16.1903C106.272 14.8324 105.994 13.1989 105.999 11.2898C105.999 9.38636 106.281 7.7642 106.843 6.42329C107.411 5.08239 108.221 4.0625 109.272 3.36364C110.329 2.65909 111.587 2.30682 113.048 2.30682C114.508 2.30682 115.763 2.65909 116.815 3.36364C117.871 4.06818 118.684 5.09091 119.252 6.43182C119.82 7.76705 120.102 9.38636 120.096 11.2898C120.096 13.2045 119.812 14.8409 119.244 16.1989C118.681 17.5568 117.874 18.5937 116.823 19.3097C115.772 20.0256 114.513 20.3835 113.048 20.3835ZM113.048 17.3239C114.048 17.3239 114.846 16.821 115.442 15.8153C116.039 14.8097 116.335 13.3011 116.329 11.2898C116.329 9.96591 116.192 8.86364 115.92 7.98295C115.653 7.10227 115.272 6.44034 114.778 5.99716C114.289 5.55398 113.712 5.33239 113.048 5.33239C112.053 5.33239 111.258 5.82955 110.661 6.82386C110.065 7.81818 109.763 9.30682 109.758 11.2898C109.758 12.6307 109.891 13.75 110.158 14.6477C110.431 15.5398 110.815 16.2102 111.309 16.6591C111.803 17.1023 112.383 17.3239 113.048 17.3239ZM127.943 17.3409V5.27273H130.994V17.3409H127.943ZM123.435 12.8324V9.78125H135.503V12.8324H123.435ZM73.321 42V31.0909H77.0071C77.8629 31.0909 78.5625 31.2454 79.1058 31.5543C79.6527 31.8597 80.0575 32.2734 80.3203 32.7955C80.5831 33.3175 80.7145 33.8999 80.7145 34.5426C80.7145 35.1854 80.5831 35.7695 80.3203 36.2951C80.0611 36.8207 79.6598 37.2397 79.1165 37.5522C78.5732 37.8612 77.8771 38.0156 77.0284 38.0156H74.3864V36.8438H76.9858C77.5717 36.8438 78.0423 36.7425 78.3974 36.5401C78.7525 36.3377 79.0099 36.0643 79.1697 35.7198C79.3331 35.3718 79.4148 34.9794 79.4148 34.5426C79.4148 34.1058 79.3331 33.7152 79.1697 33.3707C79.0099 33.0263 78.7507 32.7564 78.392 32.5611C78.0334 32.3622 77.5575 32.2628 76.9645 32.2628H74.642V42H73.321ZM82.6721 42V33.8182H83.8865V35.054H83.9718C84.1209 34.6491 84.3908 34.3207 84.7814 34.0685C85.1721 33.8164 85.6124 33.6903 86.1025 33.6903C86.1948 33.6903 86.3102 33.6921 86.4487 33.6957C86.5872 33.6992 86.6919 33.7045 86.763 33.7116V34.9901C86.7203 34.9794 86.6227 34.9634 86.47 34.9421C86.3208 34.9173 86.1628 34.9048 85.9959 34.9048C85.5982 34.9048 85.2431 34.9883 84.9306 35.1552C84.6216 35.3185 84.3766 35.5458 84.1955 35.837C84.0179 36.1246 83.9292 36.4531 83.9292 36.8224V42H82.6721ZM91.3279 42.1705C90.5893 42.1705 89.9412 41.9947 89.3837 41.6431C88.8297 41.2915 88.3965 40.7997 88.084 40.1676C87.775 39.5355 87.6206 38.7969 87.6206 37.9517C87.6206 37.0994 87.775 36.3555 88.084 35.7198C88.3965 35.0842 88.8297 34.5906 89.3837 34.239C89.9412 33.8874 90.5893 33.7116 91.3279 33.7116C92.0666 33.7116 92.7129 33.8874 93.2669 34.239C93.8244 34.5906 94.2576 35.0842 94.5666 35.7198C94.8791 36.3555 95.0353 37.0994 95.0353 37.9517C95.0353 38.7969 94.8791 39.5355 94.5666 40.1676C94.2576 40.7997 93.8244 41.2915 93.2669 41.6431C92.7129 41.9947 92.0666 42.1705 91.3279 42.1705ZM91.3279 41.0412C91.889 41.0412 92.3507 40.8974 92.7129 40.6097C93.0751 40.3221 93.3432 39.9439 93.5172 39.4751C93.6912 39.0064 93.7782 38.4986 93.7782 37.9517C93.7782 37.4048 93.6912 36.8952 93.5172 36.4229C93.3432 35.9506 93.0751 35.5689 92.7129 35.2777C92.3507 34.9865 91.889 34.8409 91.3279 34.8409C90.7669 34.8409 90.3052 34.9865 89.943 35.2777C89.5808 35.5689 89.3127 35.9506 89.1387 36.4229C88.9647 36.8952 88.8777 37.4048 88.8777 37.9517C88.8777 38.4986 88.9647 39.0064 89.1387 39.4751C89.3127 39.9439 89.5808 40.3221 89.943 40.6097C90.3052 40.8974 90.7669 41.0412 91.3279 41.0412ZM96.9543 33.8182H98.2114V42.5966C98.2114 43.1009 98.1244 43.5376 97.9504 43.907C97.7799 44.2763 97.5207 44.5621 97.1727 44.7646C96.8282 44.967 96.3932 45.0682 95.8676 45.0682C95.825 45.0682 95.7824 45.0682 95.7398 45.0682C95.6972 45.0682 95.6546 45.0682 95.6119 45.0682V43.8963C95.6546 43.8963 95.6936 43.8963 95.7291 43.8963C95.7646 43.8963 95.8037 43.8963 95.8463 43.8963C96.2298 43.8963 96.5104 43.7827 96.6879 43.5554C96.8655 43.3317 96.9543 43.0121 96.9543 42.5966V33.8182ZM97.5722 32.4545C97.3271 32.4545 97.1159 32.3711 96.9383 32.2042C96.7643 32.0373 96.6773 31.8366 96.6773 31.6023C96.6773 31.3679 96.7643 31.1673 96.9383 31.0004C97.1159 30.8335 97.3271 30.75 97.5722 30.75C97.8172 30.75 98.0267 30.8335 98.2007 31.0004C98.3783 31.1673 98.4671 31.3679 98.4671 31.6023C98.4671 31.8366 98.3783 32.0373 98.2007 32.2042C98.0267 32.3711 97.8172 32.4545 97.5722 32.4545ZM103.944 42.1705C103.156 42.1705 102.476 41.9964 101.904 41.6484C101.336 41.2969 100.897 40.8068 100.588 40.1783C100.283 39.5462 100.13 38.8111 100.13 37.973C100.13 37.1349 100.283 36.3963 100.588 35.7571C100.897 35.1143 101.327 34.6136 101.877 34.255C102.431 33.8928 103.078 33.7116 103.816 33.7116C104.243 33.7116 104.663 33.7827 105.079 33.9247C105.494 34.0668 105.873 34.2976 106.213 34.6172C106.554 34.9332 106.826 35.3523 107.028 35.8743C107.231 36.3963 107.332 37.0391 107.332 37.8026V38.3352H101.025V37.2486H106.054C106.054 36.7869 105.961 36.375 105.777 36.0128C105.596 35.6506 105.336 35.3647 104.999 35.1552C104.665 34.9457 104.271 34.8409 103.816 34.8409C103.316 34.8409 102.882 34.9652 102.517 35.2138C102.154 35.4588 101.876 35.7784 101.68 36.1726C101.485 36.5668 101.387 36.9893 101.387 37.4403V38.1648C101.387 38.7827 101.494 39.3065 101.707 39.7362C101.924 40.1623 102.224 40.4872 102.607 40.7109C102.991 40.9311 103.436 41.0412 103.944 41.0412C104.275 41.0412 104.573 40.995 104.839 40.9027C105.109 40.8068 105.342 40.6648 105.537 40.4766C105.732 40.2848 105.883 40.0469 105.99 39.7628L107.204 40.1037C107.076 40.5156 106.862 40.8778 106.56 41.1903C106.258 41.4993 105.885 41.7408 105.441 41.9148C104.997 42.0852 104.498 42.1705 103.944 42.1705ZM112.803 33.8182V34.8835H108.562V33.8182H112.803ZM109.798 31.858H111.055V39.6562C111.055 40.0114 111.107 40.2777 111.21 40.4553C111.316 40.6293 111.451 40.7464 111.615 40.8068C111.782 40.8636 111.957 40.892 112.142 40.892C112.281 40.892 112.394 40.8849 112.483 40.8707C112.572 40.853 112.643 40.8388 112.696 40.8281L112.952 41.9574C112.866 41.9893 112.748 42.0213 112.595 42.0533C112.442 42.0888 112.249 42.1065 112.014 42.1065C111.659 42.1065 111.311 42.0302 110.97 41.8775C110.633 41.7248 110.352 41.4922 110.129 41.1797C109.908 40.8672 109.798 40.473 109.798 39.9972V31.858ZM117.93 42.1705C117.191 42.1705 116.543 41.9947 115.985 41.6431C115.431 41.2915 114.998 40.7997 114.686 40.1676C114.377 39.5355 114.222 38.7969 114.222 37.9517C114.222 37.0994 114.377 36.3555 114.686 35.7198C114.998 35.0842 115.431 34.5906 115.985 34.239C116.543 33.8874 117.191 33.7116 117.93 33.7116C118.668 33.7116 119.314 33.8874 119.868 34.239C120.426 34.5906 120.859 35.0842 121.168 35.7198C121.481 36.3555 121.637 37.0994 121.637 37.9517C121.637 38.7969 121.481 39.5355 121.168 40.1676C120.859 40.7997 120.426 41.2915 119.868 41.6431C119.314 41.9947 118.668 42.1705 117.93 42.1705ZM117.93 41.0412C118.491 41.0412 118.952 40.8974 119.314 40.6097C119.677 40.3221 119.945 39.9439 120.119 39.4751C120.293 39.0064 120.38 38.4986 120.38 37.9517C120.38 37.4048 120.293 36.8952 120.119 36.4229C119.945 35.9506 119.677 35.5689 119.314 35.2777C118.952 34.9865 118.491 34.8409 117.93 34.8409C117.368 34.8409 116.907 34.9865 116.545 35.2777C116.182 35.5689 115.914 35.9506 115.74 36.4229C115.566 36.8952 115.479 37.4048 115.479 37.9517C115.479 38.4986 115.566 39.0064 115.74 39.4751C115.914 39.9439 116.182 40.3221 116.545 40.6097C116.907 40.8974 117.368 41.0412 117.93 41.0412ZM129.351 35.6506L128.222 35.9702C128.151 35.782 128.046 35.5991 127.908 35.4215C127.773 35.2404 127.588 35.0913 127.354 34.9741C127.119 34.8569 126.819 34.7983 126.454 34.7983C125.953 34.7983 125.536 34.9137 125.202 35.1445C124.872 35.3718 124.706 35.6612 124.706 36.0128C124.706 36.3253 124.82 36.5721 125.047 36.7532C125.275 36.9343 125.63 37.0852 126.113 37.206L127.327 37.5043C128.059 37.6818 128.604 37.9535 128.962 38.3192C129.321 38.6815 129.5 39.1484 129.5 39.7202C129.5 40.1889 129.366 40.608 129.096 40.9773C128.829 41.3466 128.456 41.6378 127.977 41.8509C127.498 42.0639 126.94 42.1705 126.304 42.1705C125.47 42.1705 124.779 41.9893 124.232 41.6271C123.685 41.2649 123.339 40.7358 123.194 40.0398L124.387 39.7415C124.5 40.1818 124.715 40.5121 125.031 40.7322C125.351 40.9524 125.768 41.0625 126.283 41.0625C126.869 41.0625 127.334 40.9382 127.679 40.6896C128.027 40.4375 128.201 40.1357 128.201 39.7841C128.201 39.5 128.101 39.2621 127.902 39.0703C127.704 38.875 127.398 38.7294 126.986 38.6335L125.623 38.3139C124.873 38.1364 124.323 37.8612 123.971 37.4883C123.623 37.1119 123.449 36.6413 123.449 36.0767C123.449 35.6151 123.579 35.2067 123.838 34.8516C124.101 34.4964 124.458 34.2177 124.909 34.0153C125.363 33.8129 125.878 33.7116 126.454 33.7116C127.263 33.7116 127.899 33.8892 128.361 34.2443C128.826 34.5994 129.156 35.0682 129.351 35.6506ZM135.782 42V31.0909H142.323V32.2628H137.103V35.9489H141.833V37.1207H137.103V42H135.782ZM144.415 42V33.8182H145.672V42H144.415ZM145.054 32.4545C144.809 32.4545 144.598 32.3711 144.421 32.2042C144.247 32.0373 144.16 31.8366 144.16 31.6023C144.16 31.3679 144.247 31.1673 144.421 31.0004C144.598 30.8335 144.809 30.75 145.054 30.75C145.299 30.75 145.509 30.8335 145.683 31.0004C145.861 31.1673 145.949 31.3679 145.949 31.6023C145.949 31.8366 145.861 32.0373 145.683 32.2042C145.509 32.3711 145.299 32.4545 145.054 32.4545ZM149.232 37.0781V42H147.975V33.8182H149.189V35.0966H149.296C149.488 34.6811 149.779 34.3473 150.169 34.0952C150.56 33.8395 151.064 33.7116 151.682 33.7116C152.236 33.7116 152.721 33.8253 153.136 34.0526C153.552 34.2763 153.875 34.6172 154.106 35.0753C154.337 35.5298 154.452 36.1051 154.452 36.8011V42H153.195V36.8864C153.195 36.2436 153.028 35.7429 152.694 35.3842C152.36 35.022 151.902 34.8409 151.32 34.8409C150.919 34.8409 150.56 34.9279 150.244 35.1019C149.931 35.2759 149.685 35.5298 149.504 35.8636C149.322 36.1974 149.232 36.6023 149.232 37.0781ZM159.157 42.1918C158.638 42.1918 158.168 42.0941 157.745 41.8988C157.323 41.6999 156.987 41.4141 156.739 41.0412C156.49 40.6648 156.366 40.2102 156.366 39.6776C156.366 39.2088 156.458 38.8288 156.643 38.5376C156.827 38.2429 157.074 38.0121 157.383 37.8452C157.692 37.6783 158.033 37.554 158.406 37.4723C158.782 37.3871 159.16 37.3196 159.54 37.2699C160.038 37.206 160.441 37.158 160.75 37.1261C161.062 37.0906 161.289 37.032 161.431 36.9503C161.577 36.8686 161.65 36.7266 161.65 36.5241V36.4815C161.65 35.956 161.506 35.5476 161.218 35.2564C160.934 34.9652 160.503 34.8196 159.924 34.8196C159.324 34.8196 158.853 34.951 158.512 35.2138C158.171 35.4766 157.932 35.7571 157.793 36.0554L156.6 35.6293C156.813 35.1321 157.097 34.745 157.452 34.468C157.811 34.1875 158.202 33.9922 158.624 33.8821C159.05 33.7685 159.469 33.7116 159.881 33.7116C160.144 33.7116 160.446 33.7436 160.787 33.8075C161.131 33.8679 161.463 33.994 161.783 34.1857C162.106 34.3775 162.374 34.6669 162.587 35.054C162.8 35.4411 162.907 35.9595 162.907 36.6094V42H161.65V40.892H161.586C161.501 41.0696 161.359 41.2596 161.16 41.462C160.961 41.6644 160.696 41.8366 160.366 41.9787C160.036 42.1207 159.633 42.1918 159.157 42.1918ZM159.349 41.0625C159.846 41.0625 160.265 40.9648 160.606 40.7695C160.95 40.5742 161.209 40.3221 161.383 40.0131C161.561 39.7042 161.65 39.3793 161.65 39.0384V37.8878C161.597 37.9517 161.479 38.0103 161.298 38.0636C161.121 38.1133 160.915 38.1577 160.68 38.1967C160.449 38.2322 160.224 38.2642 160.004 38.2926C159.787 38.3175 159.611 38.3388 159.476 38.3565C159.15 38.3991 158.844 38.4684 158.56 38.5643C158.28 38.6566 158.052 38.7969 157.878 38.9851C157.708 39.1697 157.623 39.4219 157.623 39.7415C157.623 40.1783 157.784 40.5085 158.108 40.7322C158.434 40.9524 158.848 41.0625 159.349 41.0625ZM166.458 31.0909V42H165.201V31.0909H166.458ZM168.761 42V33.8182H170.018V42H168.761ZM169.4 32.4545C169.155 32.4545 168.944 32.3711 168.766 32.2042C168.592 32.0373 168.505 31.8366 168.505 31.6023C168.505 31.3679 168.592 31.1673 168.766 31.0004C168.944 30.8335 169.155 30.75 169.4 30.75C169.645 30.75 169.855 30.8335 170.029 31.0004C170.206 31.1673 170.295 31.3679 170.295 31.6023C170.295 31.8366 170.206 32.0373 170.029 32.2042C169.855 32.3711 169.645 32.4545 169.4 32.4545ZM172.086 42V41.0412L176.731 35.0753V34.9901H172.235V33.8182H178.35V34.8196L173.833 40.7429V40.8281H178.499V42H172.086ZM182.843 42.1918C182.325 42.1918 181.854 42.0941 181.432 41.8988C181.009 41.6999 180.674 41.4141 180.425 41.0412C180.176 40.6648 180.052 40.2102 180.052 39.6776C180.052 39.2088 180.145 38.8288 180.329 38.5376C180.514 38.2429 180.761 38.0121 181.07 37.8452C181.379 37.6783 181.719 37.554 182.092 37.4723C182.469 37.3871 182.847 37.3196 183.227 37.2699C183.724 37.206 184.127 37.158 184.436 37.1261C184.749 37.0906 184.976 37.032 185.118 36.9503C185.263 36.8686 185.336 36.7266 185.336 36.5241V36.4815C185.336 35.956 185.192 35.5476 184.905 35.2564C184.621 34.9652 184.189 34.8196 183.61 34.8196C183.01 34.8196 182.54 34.951 182.199 35.2138C181.858 35.4766 181.618 35.7571 181.48 36.0554L180.287 35.6293C180.5 35.1321 180.784 34.745 181.139 34.468C181.498 34.1875 181.888 33.9922 182.311 33.8821C182.737 33.7685 183.156 33.7116 183.568 33.7116C183.831 33.7116 184.132 33.7436 184.473 33.8075C184.818 33.8679 185.15 33.994 185.469 34.1857C185.793 34.3775 186.061 34.6669 186.274 35.054C186.487 35.4411 186.593 35.9595 186.593 36.6094V42H185.336V40.892H185.272C185.187 41.0696 185.045 41.2596 184.846 41.462C184.647 41.6644 184.383 41.8366 184.053 41.9787C183.722 42.1207 183.319 42.1918 182.843 42.1918ZM183.035 41.0625C183.532 41.0625 183.951 40.9648 184.292 40.7695C184.637 40.5742 184.896 40.3221 185.07 40.0131C185.248 39.7042 185.336 39.3793 185.336 39.0384V37.8878C185.283 37.9517 185.166 38.0103 184.985 38.0636C184.807 38.1133 184.601 38.1577 184.367 38.1967C184.136 38.2322 183.911 38.2642 183.69 38.2926C183.474 38.3175 183.298 38.3388 183.163 38.3565C182.836 38.3991 182.531 38.4684 182.247 38.5643C181.966 38.6566 181.739 38.7969 181.565 38.9851C181.395 39.1697 181.309 39.4219 181.309 39.7415C181.309 40.1783 181.471 40.5085 181.794 40.7322C182.121 40.9524 182.534 41.0625 183.035 41.0625ZM191.977 42.1705C191.296 42.1705 190.694 41.9982 190.172 41.6538C189.65 41.3058 189.241 40.8157 188.946 40.1836C188.652 39.5479 188.504 38.7969 188.504 37.9304C188.504 37.071 188.652 36.3253 188.946 35.6932C189.241 35.0611 189.651 34.5728 190.177 34.2283C190.703 33.8839 191.31 33.7116 191.999 33.7116C192.531 33.7116 192.952 33.8004 193.261 33.978C193.574 34.152 193.812 34.3509 193.975 34.5746C194.142 34.7947 194.271 34.9759 194.364 35.1179H194.47V31.0909H195.727V42H194.513V40.7429H194.364C194.271 40.892 194.14 41.0803 193.97 41.3075C193.799 41.5312 193.556 41.7319 193.24 41.9094C192.924 42.0835 192.503 42.1705 191.977 42.1705ZM192.148 41.0412C192.652 41.0412 193.078 40.9098 193.426 40.647C193.774 40.3807 194.039 40.0131 194.22 39.5444C194.401 39.0721 194.492 38.527 194.492 37.9091C194.492 37.2983 194.403 36.7638 194.225 36.3058C194.048 35.8441 193.785 35.4854 193.437 35.2298C193.089 34.9705 192.659 34.8409 192.148 34.8409C191.615 34.8409 191.171 34.9776 190.816 35.2511C190.465 35.521 190.2 35.8885 190.022 36.3537C189.848 36.8153 189.761 37.3338 189.761 37.9091C189.761 38.4915 189.85 39.0206 190.028 39.4964C190.209 39.9687 190.475 40.3452 190.827 40.6257C191.182 40.9027 191.622 41.0412 192.148 41.0412ZM201.528 42.1705C200.79 42.1705 200.141 41.9947 199.584 41.6431C199.03 41.2915 198.597 40.7997 198.284 40.1676C197.975 39.5355 197.821 38.7969 197.821 37.9517C197.821 37.0994 197.975 36.3555 198.284 35.7198C198.597 35.0842 199.03 34.5906 199.584 34.239C200.141 33.8874 200.79 33.7116 201.528 33.7116C202.267 33.7116 202.913 33.8874 203.467 34.239C204.025 34.5906 204.458 35.0842 204.767 35.7198C205.079 36.3555 205.236 37.0994 205.236 37.9517C205.236 38.7969 205.079 39.5355 204.767 40.1676C204.458 40.7997 204.025 41.2915 203.467 41.6431C202.913 41.9947 202.267 42.1705 201.528 42.1705ZM201.528 41.0412C202.089 41.0412 202.551 40.8974 202.913 40.6097C203.275 40.3221 203.543 39.9439 203.717 39.4751C203.891 39.0064 203.978 38.4986 203.978 37.9517C203.978 37.4048 203.891 36.8952 203.717 36.4229C203.543 35.9506 203.275 35.5689 202.913 35.2777C202.551 34.9865 202.089 34.8409 201.528 34.8409C200.967 34.8409 200.505 34.9865 200.143 35.2777C199.781 35.5689 199.513 35.9506 199.339 36.4229C199.165 36.8952 199.078 37.4048 199.078 37.9517C199.078 38.4986 199.165 39.0064 199.339 39.4751C199.513 39.9439 199.781 40.3221 200.143 40.6097C200.505 40.8974 200.967 41.0412 201.528 41.0412ZM212.95 35.6506L211.821 35.9702C211.75 35.782 211.645 35.5991 211.506 35.4215C211.371 35.2404 211.187 35.0913 210.952 34.9741C210.718 34.8569 210.418 34.7983 210.052 34.7983C209.551 34.7983 209.134 34.9137 208.8 35.1445C208.47 35.3718 208.305 35.6612 208.305 36.0128C208.305 36.3253 208.419 36.5721 208.646 36.7532C208.873 36.9343 209.228 37.0852 209.711 37.206L210.926 37.5043C211.657 37.6818 212.202 37.9535 212.561 38.3192C212.92 38.6815 213.099 39.1484 213.099 39.7202C213.099 40.1889 212.964 40.608 212.694 40.9773C212.428 41.3466 212.055 41.6378 211.576 41.8509C211.096 42.0639 210.539 42.1705 209.903 42.1705C209.069 42.1705 208.378 41.9893 207.831 41.6271C207.284 41.2649 206.938 40.7358 206.792 40.0398L207.985 39.7415C208.099 40.1818 208.314 40.5121 208.63 40.7322C208.95 40.9524 209.367 41.0625 209.882 41.0625C210.468 41.0625 210.933 40.9382 211.277 40.6896C211.625 40.4375 211.799 40.1357 211.799 39.7841C211.799 39.5 211.7 39.2621 211.501 39.0703C211.302 38.875 210.997 38.7294 210.585 38.6335L209.221 38.3139C208.472 38.1364 207.922 37.8612 207.57 37.4883C207.222 37.1119 207.048 36.6413 207.048 36.0767C207.048 35.6151 207.178 35.2067 207.437 34.8516C207.7 34.4964 208.056 34.2177 208.507 34.0153C208.962 33.8129 209.477 33.7116 210.052 33.7116C210.862 33.7116 211.498 33.8892 211.959 34.2443C212.424 34.5994 212.755 35.0682 212.95 35.6506Z" fill="#272626"/>
<path d="M23.2 17C21.8745 17 20.8 17.8137 20.8 18.8175V26.0873C20.8 27.091 21.8745 27.9047 23.2 27.9047H30.4C31.7255 27.9047 32.8 27.091 32.8 26.0873V21.0113C32.8 20.5293 32.5471 20.067 32.0971 19.7262L29.2 17.5323C28.7499 17.1915 28.1395 17 27.5029 17H23.2Z" fill="#4B4EFC"/>
<path d="M16 22.4524C16 21.4486 17.0745 20.6349 18.4 20.6349V29.7222H28C28 30.726 26.9255 31.5397 25.6 31.5397H18.4C17.0745 31.5397 16 30.726 16 29.7222V22.4524Z" fill="#4B4EFC"/>
</svg>
